# xmcd
#
# Track frame offsets: 
#        150
#        41027
#        70534
#        95947
#        116284
#        152432
#
# Disc length: 2524 seconds
#
# Revision: 0
# Processed by: cddbd v1.5.1PL0 Copyright (c) Steve Scherf et al.
# Submitted via: ExactAudioCopy v0.95a5
#
DISCID=4409da06
DTITLE=Buddy Guy - Stone Crazy
DYEAR=2002
DGENRE=Blues
TTITLE0=I smell a rat
TTITLE1=Are you losing your mind
TTITLE2=You have been gone too long
TTITLE3=She's out there somewhere
TTITLE4=Outskirts of town
TTITLE5=When I left home
EXTD=
EXTT0=
EXTT1=
EXTT2=
EXTT3=
EXTT4=
EXTT5=
PLAYORDER=
